{
  "accessors": [
    {
      "name": "Text_Font1-Mesh_positions",
      "componentType": 5126,
      "count": 917,
      "min": [
        -1.4671460390090942,
        -0.18437699973583221,
        -1.7292410135269165
      ],
      "max": [
        1.559093952178955,
        0.6915959715843201,
        1.6642379760742188
      ],
      "type": "VEC3",
      "bufferView": 0,
      "byteOffset": 0
    },
    {
      "name": "Text_Font1-Mesh_normals",
      "componentType": 5126,
      "count": 917,
      "min": [
        -0.7469000220298767,
        -0.9972000122070312,
        -0.7476999759674072
      ],
      "max": [
        0.7469000220298767,
        0.9972000122070312,
        0.7476000189781189
      ],
      "type": "VEC3",
      "bufferView": 0,
      "byteOffset": 11004
    },
    {
      "name": "Text_Font1-Mesh_0_indices",
      "componentType": 5123,
      "count": 2556,
      "min": [
        0
      ],
      "max": [
        916
      ],
      "type": "SCALAR",
      "bufferView": 1,
      "byteOffset": 0
    }
  ],
  "asset": {
    "generator": "obj2gltf",
    "version": "2.0"
  },
  "buffers": [
    {
      "name": "hom_text",
      "byteLength": 27120,
      "uri": "data:application/octet-stream;base64,"
    }
  ],
  "bufferViews": [
    {
      "name": "bufferView_0",
      "buffer": 0,
      "byteLength": 22008,
      "byteOffset": 0,
      "byteStride": 12,
      "target": 34962
    },
    {
      "name": "bufferView_1",
      "buffer": 0,
      "byteLength": 5112,
      "byteOffset": 22008,
      "target": 34963
    }
  ],
  "materials": [
    {
      "name": "None",
      "pbrMetallicRoughness": {
        "baseColorFactor": [
          0.8,
          0.8,
          0.8,
          1
        ],
        "metallicFactor": 0,
        "roughnessFactor": 1
      },
      "emissiveFactor": [
        0,
        0,
        0
      ],
      "alphaMode": "OPAQUE",
      "doubleSided": false
    }
  ],
  "meshes": [
    {
      "name": "Text_Font1-Mesh",
      "primitives": [
        {
          "attributes": {
            "POSITION": 0,
            "NORMAL": 1
          },
          "indices": 2,
          "material": 0,
          "mode": 4
        }
      ]
    }
  ],
  "nodes": [
    {
      "name": "Text_Font1",
      "mesh": 0
    }
  ],
  "scene": 0,
  "scenes": [
    {
      "nodes": [
        0
      ]
    }
  ]
}
