{
  "accessors": [
    {
      "name": "mesh-Mesh_positions",
      "componentType": 5126,
      "count": 5997,
      "min": [
        -1.4052729606628418,
        -0.6744869947433472,
        -0.8185570240020752
      ],
      "max": [
        0.6647289991378784,
        0.7173920273780823,
        0.5736820101737976
      ],
      "type": "VEC3",
      "bufferView": 0,
      "byteOffset": 0
    },
    {
      "name": "mesh-Mesh_normals",
      "componentType": 5126,
      "count": 5997,
      "min": [
        -0.9934999942779541,
        -0.9994999766349792,
        -0.9976000189781189
      ],
      "max": [
        0.9945999979972839,
        0.998199999332428,
        0.9988999962806702
      ],
      "type": "VEC3",
      "bufferView": 0,
      "byteOffset": 71964
    },
    {
      "name": "mesh-Mesh_texcoords",
      "componentType": 5126,
      "count": 5997,
      "min": [
        0.0004879999905824661,
        0.0004879999905824661
      ],
      "max": [
        0.9995120167732239,
        0.999547004699707
      ],
      "type": "VEC2",
      "bufferView": 1,
      "byteOffset": 0
    },
    {
      "name": "mesh-Mesh_0_indices",
      "componentType": 5123,
      "count": 5997,
      "min": [
        0
      ],
      "max": [
        5996
      ],
      "type": "SCALAR",
      "bufferView": 2,
      "byteOffset": 0
    }
  ],
  "asset": {
    "generator": "obj2gltf",
    "version": "2.0"
  },
  "buffers": [
    {
      "name": "chip-downsampled",
      "byteLength": 296144,
      "uri": "data:application/octet-stream;base64,"
    }
  ],
  "bufferViews": [
    {
      "name": "bufferView_0",
      "buffer": 0,
      "byteLength": 143928,
      "byteOffset": 0,
      "byteStride": 12,
      "target": 34962
    },
    {
      "name": "bufferView_1",
      "buffer": 0,
      "byteLength": 47976,
      "byteOffset": 143928,
      "byteStride": 8,
      "target": 34962
    },
    {
      "name": "bufferView_2",
      "buffer": 0,
      "byteLength": 11996,
      "byteOffset": 191904,
      "target": 34963
    },
    {
      "buffer": 0,
      "byteOffset": 203900,
      "byteLength": 92242
    }
  ],
  "images": [
    {
      "name": "texture",
      "mimeType": "image/png",
      "bufferView": 3
    }
  ],
  "materials": [
    {
      "name": "material_0",
      "pbrMetallicRoughness": {
        "baseColorTexture": {
          "index": 0
        },
        "baseColorFactor": [
          1,
          1,
          1,
          1
        ],
        "metallicFactor": 0,
        "roughnessFactor": 1
      },
      "emissiveFactor": [
        0,
        0,
        0
      ],
      "alphaMode": "OPAQUE",
      "doubleSided": false
    }
  ],
  "meshes": [
    {
      "name": "mesh-Mesh",
      "primitives": [
        {
          "attributes": {
            "POSITION": 0,
            "NORMAL": 1,
            "TEXCOORD_0": 2
          },
          "indices": 3,
          "material": 0,
          "mode": 4
        }
      ]
    }
  ],
  "nodes": [
    {
      "name": "mesh",
      "mesh": 0
    }
  ],
  "samplers": [
    {
      "magFilter": 9729,
      "minFilter": 9986,
      "wrapS": 10497,
      "wrapT": 10497
    }
  ],
  "scene": 0,
  "scenes": [
    {
      "nodes": [
        0
      ]
    }
  ],
  "textures": [
    {
      "name": "texture",
      "sampler": 0,
      "source": 0
    }
  ]
}
