{
  "accessors": [
    {
      "name": "Text_Font1-Mesh_positions",
      "componentType": 5126,
      "count": 525,
      "min": [
        -0.8615480065345764,
        -0.10902199894189835,
        -1.0485780239105225
      ],
      "max": [
        0.9578419923782349,
        0.6312639713287354,
        0.9800310134887695
      ],
      "type": "VEC3",
      "bufferView": 0,
      "byteOffset": 0
    },
    {
      "name": "Text_Font1-Mesh_normals",
      "componentType": 5126,
      "count": 525,
      "min": [
        -1,
        -0.9958000183105469,
        -0.9864000082015991
      ],
      "max": [
        0.7469000220298767,
        0.9993000030517578,
        0.9358999729156494
      ],
      "type": "VEC3",
      "bufferView": 0,
      "byteOffset": 6300
    },
    {
      "name": "Text_Font1-Mesh_0_indices",
      "componentType": 5123,
      "count": 1440,
      "min": [
        0
      ],
      "max": [
        524
      ],
      "type": "SCALAR",
      "bufferView": 1,
      "byteOffset": 0
    }
  ],
  "asset": {
    "generator": "obj2gltf",
    "version": "2.0"
  },
  "buffers": [
    {
      "name": "text",
      "byteLength": 15480,
      "uri": "data:application/octet-stream;base64,"
    }
  ],
  "bufferViews": [
    {
      "name": "bufferView_0",
      "buffer": 0,
      "byteLength": 12600,
      "byteOffset": 0,
      "byteStride": 12,
      "target": 34962
    },
    {
      "name": "bufferView_1",
      "buffer": 0,
      "byteLength": 2880,
      "byteOffset": 12600,
      "target": 34963
    }
  ],
  "materials": [
    {
      "name": "None",
      "pbrMetallicRoughness": {
        "baseColorFactor": [
          0.8,
          0.8,
          0.8,
          1
        ],
        "metallicFactor": 0,
        "roughnessFactor": 1
      },
      "emissiveFactor": [
        0,
        0,
        0
      ],
      "alphaMode": "OPAQUE",
      "doubleSided": false
    }
  ],
  "meshes": [
    {
      "name": "Text_Font1-Mesh",
      "primitives": [
        {
          "attributes": {
            "POSITION": 0,
            "NORMAL": 1
          },
          "indices": 2,
          "material": 0,
          "mode": 4
        }
      ]
    }
  ],
  "nodes": [
    {
      "name": "Text_Font1",
      "mesh": 0
    }
  ],
  "scene": 0,
  "scenes": [
    {
      "nodes": [
        0
      ]
    }
  ]
}
