{
  "accessors": [
    {
      "bufferView": 2,
      "componentType": 5126,
      "count": 5651,
      "max": [
        0.64468199014663696,
        0.66711997985839844,
        3.244225025177002
      ],
      "min": [
        -0.61777102947235107,
        -0.67890399694442749,
        -0.021012000739574432
      ],
      "type": "VEC3"
    },
    {
      "bufferView": 2,
      "byteOffset": 67812,
      "componentType": 5126,
      "count": 5651,
      "max": [
        0.99997574090957642,
        0.99981850385665894,
        0.99522250890731812
      ],
      "min": [
        -0.99952787160873413,
        -0.99868589639663696,
        -0.7592310905456543
      ],
      "type": "VEC3"
    },
    {
      "bufferView": 3,
      "componentType": 5126,
      "count": 5651,
      "max": [
        0.99998974800109863,
        0.9999920129776001,
        0.99768072366714478,
        1
      ],
      "min": [
        -0.99934381246566772,
        -0.99994713068008423,
        -0.98999947309494019,
        -1
      ],
      "type": "VEC4"
    },
    {
      "bufferView": 1,
      "componentType": 5126,
      "count": 5651,
      "max": [
        0.99107098579406738,
        0.99165499210357666
      ],
      "min": [
        0.0091270003467798233,
        0.0084309997037053108
      ],
      "type": "VEC2"
    },
    {
      "bufferView": 0,
      "componentType": 5125,
      "count": 6753,
      "max": [
        5650
      ],
      "min": [
        0
      ],
      "type": "SCALAR"
    },
    {
      "bufferView": 2,
      "byteOffset": 135624,
      "componentType": 5126,
      "count": 48,
      "max": [
        0.3288399875164032,
        0.48726499080657959,
        3.1969649791717529
      ],
      "min": [
        -0.36285701394081116,
        -0.42515099048614502,
        0.63886898756027222
      ],
      "type": "VEC3"
    },
    {
      "bufferView": 2,
      "byteOffset": 136200,
      "componentType": 5126,
      "count": 48,
      "max": [
        0.47523412108421326,
        0.89888060092926025,
        0.95673537254333496
      ],
      "min": [
        -0.96789097785949707,
        -0.56239414215087891,
        -0.22110402584075928
      ],
      "type": "VEC3"
    },
    {
      "bufferView": 3,
      "byteOffset": 90416,
      "componentType": 5126,
      "count": 48,
      "max": [
        0.95830386877059937,
        0.69388139247894287,
        0.90522348880767822,
        1
      ],
      "min": [
        -0.98438173532485962,
        -0.99527150392532349,
        -0.55880898237228394,
        1
      ],
      "type": "VEC4"
    },
    {
      "bufferView": 1,
      "byteOffset": 45208,
      "componentType": 5126,
      "count": 48,
      "max": [
        0.90630197525024414,
        0.83207201957702637
      ],
      "min": [
        0.013020000420510769,
        0.26504498720169067
      ],
      "type": "VEC2"
    },
    {
      "bufferView": 0,
      "byteOffset": 27012,
      "componentType": 5125,
      "count": 51,
      "max": [
        47
      ],
      "min": [
        0
      ],
      "type": "SCALAR"
    },
    {
      "bufferView": 2,
      "byteOffset": 136776,
      "componentType": 5126,
      "count": 45,
      "max": [
        0.34682399034500122,
        0.21284399926662445,
        3.244225025177002
      ],
      "min": [
        -0.11501000076532364,
        -0.39491000771522522,
        3.095242977142334
      ],
      "type": "VEC3"
    },
    {
      "bufferView": 2,
      "byteOffset": 137316,
      "componentType": 5126,
      "count": 45,
      "max": [
        0.6372496485710144,
        0.40968406200408936,
        0.96471476554870605
      ],
      "min": [
        -0.44950214028358459,
        -0.5255577564239502,
        0.74342083930969238
      ],
      "type": "VEC3"
    },
    {
      "bufferView": 3,
      "byteOffset": 91184,
      "componentType": 5126,
      "count": 45,
      "max": [
        0,
        0,
        0,
        1
      ],
      "min": [
        0,
        0,
        0,
        1
      ],
      "type": "VEC4"
    },
    {
      "bufferView": 0,
      "byteOffset": 27216,
      "componentType": 5125,
      "count": 108,
      "max": [
        44
      ],
      "min": [
        0
      ],
      "type": "SCALAR"
    },
    {
      "bufferView": 2,
      "byteOffset": 137856,
      "componentType": 5126,
      "count": 29,
      "max": [
        0.12135999649763107,
        0.10599599778652191,
        0.078403003513813019
      ],
      "min": [
        -0.15414200723171234,
        -0.118538998067379,
        -0.021012000739574432
      ],
      "type": "VEC3"
    },
    {
      "bufferView": 2,
      "byteOffset": 138204,
      "componentType": 5126,
      "count": 29,
      "max": [
        0.40369492769241333,
        0.85088890790939331,
        0.99977737665176392
      ],
      "min": [
        -0.85608428716659546,
        -0.90400111675262451,
        0.38888692855834961
      ],
      "type": "VEC3"
    },
    {
      "bufferView": 3,
      "byteOffset": 91904,
      "componentType": 5126,
      "count": 29,
      "max": [
        0,
        0,
        0,
        1
      ],
      "min": [
        0,
        0,
        0,
        1
      ],
      "type": "VEC4"
    },
    {
      "bufferView": 0,
      "byteOffset": 27648,
      "componentType": 5125,
      "count": 57,
      "max": [
        28
      ],
      "min": [
        0
      ],
      "type": "SCALAR"
    },
    {
      "bufferView": 2,
      "byteOffset": 138552,
      "componentType": 5126,
      "count": 6,
      "max": [
        0.096083998680114746,
        0.10694599896669388,
        -0.010348999872803688
      ],
      "min": [
        0.082255996763706207,
        0.085548996925354004,
        -0.01293100044131279
      ],
      "type": "VEC3"
    },
    {
      "bufferView": 2,
      "byteOffset": 138624,
      "componentType": 5126,
      "count": 6,
      "max": [
        0.13580593466758728,
        0.16399706900119781,
        0.99416965246200562
      ],
      "min": [
        -0.0065210023894906044,
        0.065703980624675751,
        0.98548245429992676
      ],
      "type": "VEC3"
    },
    {
      "bufferView": 3,
      "byteOffset": 92368,
      "componentType": 5126,
      "count": 6,
      "max": [
        0,
        0,
        0,
        1
      ],
      "min": [
        0,
        0,
        0,
        1
      ],
      "type": "VEC4"
    },
    {
      "bufferView": 0,
      "byteOffset": 27876,
      "componentType": 5125,
      "count": 12,
      "max": [
        5
      ],
      "min": [
        0
      ],
      "type": "SCALAR"
    }
  ],
  "asset": {
    "extras": {
      "author": "evhan55 (https://sketchfab.com/evhan55)",
      "license": "CC-BY-4.0 (http://creativecommons.org/licenses/by/4.0/)",
      "source": "https://sketchfab.com/models/aa86ebd4b44c4f0ca4ee8d707ef8b83e",
      "title": "Drumstick-reduced-2"
    },
    "generator": "Sketchfab-3.18.5",
    "version": "2.0"
  },
  "bufferViews": [
    {
      "buffer": 0,
      "byteLength": 27924,
      "byteOffset": 0,
      "name": "floatBufferViews",
      "target": 34963
    },
    {
      "buffer": 0,
      "byteLength": 45592,
      "byteOffset": 27924,
      "byteStride": 8,
      "name": "floatBufferViews",
      "target": 34962
    },
    {
      "buffer": 0,
      "byteLength": 138696,
      "byteOffset": 73516,
      "byteStride": 12,
      "name": "floatBufferViews",
      "target": 34962
    },
    {
      "buffer": 0,
      "byteLength": 92464,
      "byteOffset": 212212,
      "byteStride": 16,
      "name": "floatBufferViews",
      "target": 34962
    }
  ],
  "buffers": [
    {
      "byteLength": 304676,
      "uri": "scene.bin"
    }
  ],
  "images": [
    {
      "uri": "textures/modelmaterial_2_baseColor.png"
    },
    {
      "uri": "textures/modelmaterial_0_baseColor.png"
    }
  ],
  "materials": [
    {
      "doubleSided": true,
      "emissiveFactor": [
        0,
        0,
        0
      ],
      "name": "modelmaterial_0",
      "pbrMetallicRoughness": {
        "baseColorFactor": [
          1,
          1,
          1,
          1
        ],
        "baseColorTexture": {
          "index": 1,
          "texCoord": 0
        },
        "metallicFactor": 0,
        "roughnessFactor": 1
      }
    },
    {
      "doubleSided": true,
      "emissiveFactor": [
        0,
        0,
        0
      ],
      "name": "modelmaterial_2",
      "pbrMetallicRoughness": {
        "baseColorFactor": [
          1,
          1,
          1,
          1
        ],
        "baseColorTexture": {
          "index": 0,
          "texCoord": 0
        },
        "metallicFactor": 0,
        "roughnessFactor": 1
      }
    },
    {
      "doubleSided": true,
      "emissiveFactor": [
        0,
        0,
        0
      ],
      "name": "modelmaterial_4",
      "pbrMetallicRoughness": {
        "baseColorFactor": [
          0.5,
          0.5,
          0.5,
          1
        ],
        "metallicFactor": 0,
        "roughnessFactor": 1
      }
    },
    {
      "doubleSided": true,
      "emissiveFactor": [
        0,
        0,
        0
      ],
      "name": "modelmaterial_6",
      "pbrMetallicRoughness": {
        "baseColorFactor": [
          0.5,
          0.5,
          0.5,
          1
        ],
        "metallicFactor": 0,
        "roughnessFactor": 1
      }
    },
    {
      "doubleSided": true,
      "emissiveFactor": [
        0,
        0,
        0
      ],
      "name": "modelmaterial_8",
      "pbrMetallicRoughness": {
        "baseColorFactor": [
          0.5,
          0.5,
          0.5,
          1
        ],
        "metallicFactor": 0,
        "roughnessFactor": 1
      }
    }
  ],
  "meshes": [
    {
      "primitives": [
        {
          "attributes": {
            "NORMAL": 1,
            "POSITION": 0,
            "TANGENT": 2,
            "TEXCOORD_0": 3
          },
          "indices": 4,
          "material": 0,
          "mode": 4
        }
      ]
    },
    {
      "primitives": [
        {
          "attributes": {
            "NORMAL": 6,
            "POSITION": 5,
            "TANGENT": 7,
            "TEXCOORD_0": 8
          },
          "indices": 9,
          "material": 1,
          "mode": 4
        }
      ]
    },
    {
      "primitives": [
        {
          "attributes": {
            "NORMAL": 11,
            "POSITION": 10,
            "TANGENT": 12
          },
          "indices": 13,
          "material": 2,
          "mode": 4
        }
      ]
    },
    {
      "primitives": [
        {
          "attributes": {
            "NORMAL": 15,
            "POSITION": 14,
            "TANGENT": 16
          },
          "indices": 17,
          "material": 3,
          "mode": 4
        }
      ]
    },
    {
      "primitives": [
        {
          "attributes": {
            "NORMAL": 19,
            "POSITION": 18,
            "TANGENT": 20
          },
          "indices": 21,
          "material": 4,
          "mode": 4
        }
      ]
    }
  ],
  "nodes": [
    {
      "children": [
        1
      ],
      "name": "RootNode (gltf orientation matrix)",
      "rotation": [
        -0.70710678118654746,
        -0,
        -0,
        0.70710678118654757
      ]
    },
    {
      "children": [
        2
      ],
      "name": "RootNode (model correction matrix)"
    },
    {
      "children": [
        3,
        4,
        5,
        6,
        7
      ],
      "name": "drumstick-reduced-2.obj.cleaner.materialmerger.gles"
    },
    {
      "mesh": 0,
      "name": ""
    },
    {
      "mesh": 1,
      "name": ""
    },
    {
      "mesh": 2,
      "name": ""
    },
    {
      "mesh": 3,
      "name": ""
    },
    {
      "mesh": 4,
      "name": ""
    }
  ],
  "samplers": [
    {
      "magFilter": 9729,
      "minFilter": 9987,
      "wrapS": 10497,
      "wrapT": 10497
    }
  ],
  "scene": 0,
  "scenes": [
    {
      "name": "OSG_Scene",
      "nodes": [
        0
      ]
    }
  ],
  "textures": [
    {
      "sampler": 0,
      "source": 0
    },
    {
      "sampler": 0,
      "source": 1
    }
  ]
}

