{
  "accessors": [
    {
      "name": "Text_Font1-Mesh_positions",
      "componentType": 5126,
      "count": 538,
      "min": [
        -1.1693249940872192,
        -0.14685200154781342,
        -1.3915200233459473
      ],
      "max": [
        1.26077401638031,
        0.6744059920310974,
        1.318315029144287
      ],
      "type": "VEC3",
      "bufferView": 0,
      "byteOffset": 0
    },
    {
      "name": "Text_Font1-Mesh_normals",
      "componentType": 5126,
      "count": 538,
      "min": [
        -0.7469000220298767,
        -0.9993000030517578,
        -0.7473999857902527
      ],
      "max": [
        1,
        0.9993000030517578,
        0.7397000193595886
      ],
      "type": "VEC3",
      "bufferView": 0,
      "byteOffset": 6456
    },
    {
      "name": "Text_Font1-Mesh_0_indices",
      "componentType": 5123,
      "count": 1488,
      "min": [
        0
      ],
      "max": [
        537
      ],
      "type": "SCALAR",
      "bufferView": 1,
      "byteOffset": 0
    }
  ],
  "asset": {
    "generator": "obj2gltf",
    "version": "2.0"
  },
  "buffers": [
    {
      "name": "plebeian",
      "byteLength": 15888,
      "uri": "data:application/octet-stream;base64,"
    }
  ],
  "bufferViews": [
    {
      "name": "bufferView_0",
      "buffer": 0,
      "byteLength": 12912,
      "byteOffset": 0,
      "byteStride": 12,
      "target": 34962
    },
    {
      "name": "bufferView_1",
      "buffer": 0,
      "byteLength": 2976,
      "byteOffset": 12912,
      "target": 34963
    }
  ],
  "materials": [
    {
      "name": "None",
      "pbrMetallicRoughness": {
        "baseColorFactor": [
          0.8,
          0.8,
          0.8,
          1
        ],
        "metallicFactor": 0,
        "roughnessFactor": 1
      },
      "emissiveFactor": [
        0,
        0,
        0
      ],
      "alphaMode": "OPAQUE",
      "doubleSided": false
    }
  ],
  "meshes": [
    {
      "name": "Text_Font1-Mesh",
      "primitives": [
        {
          "attributes": {
            "POSITION": 0,
            "NORMAL": 1
          },
          "indices": 2,
          "material": 0,
          "mode": 4
        }
      ]
    }
  ],
  "nodes": [
    {
      "name": "Text_Font1",
      "mesh": 0
    }
  ],
  "scene": 0,
  "scenes": [
    {
      "nodes": [
        0
      ]
    }
  ]
}
