{
  "accessors": [
    {
      "name": "Text_Font1-Mesh_positions",
      "componentType": 5126,
      "count": 508,
      "min": [
        -0.9719229936599731,
        -0.12812000513076782,
        -1.2229340076446533
      ],
      "max": [
        1.1118559837341309,
        0.6596130132675171,
        1.125162959098816
      ],
      "type": "VEC3",
      "bufferView": 0,
      "byteOffset": 0
    },
    {
      "name": "Text_Font1-Mesh_normals",
      "componentType": 5126,
      "count": 508,
      "min": [
        -0.7469000220298767,
        -0.9993000030517578,
        -0.7476000189781189
      ],
      "max": [
        0.7469000220298767,
        0.9993000030517578,
        0.7475000023841858
      ],
      "type": "VEC3",
      "bufferView": 0,
      "byteOffset": 6096
    },
    {
      "name": "Text_Font1-Mesh_0_indices",
      "componentType": 5123,
      "count": 1428,
      "min": [
        0
      ],
      "max": [
        507
      ],
      "type": "SCALAR",
      "bufferView": 1,
      "byteOffset": 0
    }
  ],
  "asset": {
    "generator": "obj2gltf",
    "version": "2.0"
  },
  "buffers": [
    {
      "name": "text",
      "byteLength": 15048,
      "uri": "data:application/octet-stream;base64,"
    }
  ],
  "bufferViews": [
    {
      "name": "bufferView_0",
      "buffer": 0,
      "byteLength": 12192,
      "byteOffset": 0,
      "byteStride": 12,
      "target": 34962
    },
    {
      "name": "bufferView_1",
      "buffer": 0,
      "byteLength": 2856,
      "byteOffset": 12192,
      "target": 34963
    }
  ],
  "materials": [
    {
      "name": "None",
      "pbrMetallicRoughness": {
        "baseColorFactor": [
          0.8,
          0.8,
          0.8,
          1
        ],
        "metallicFactor": 0,
        "roughnessFactor": 1
      },
      "emissiveFactor": [
        0,
        0,
        0
      ],
      "alphaMode": "OPAQUE",
      "doubleSided": false
    }
  ],
  "meshes": [
    {
      "name": "Text_Font1-Mesh",
      "primitives": [
        {
          "attributes": {
            "POSITION": 0,
            "NORMAL": 1
          },
          "indices": 2,
          "material": 0,
          "mode": 4
        }
      ]
    }
  ],
  "nodes": [
    {
      "name": "Text_Font1",
      "mesh": 0
    }
  ],
  "scene": 0,
  "scenes": [
    {
      "nodes": [
        0
      ]
    }
  ]
}
