{
  "accessors": [
    {
      "name": "meat_Plane.042-Mesh_positions",
      "componentType": 5126,
      "count": 1031,
      "min": [
        -1.754330039024353,
        0.37960800528526306,
        -0.6160669922828674
      ],
      "max": [
        1.5633139610290527,
        0.8158019781112671,
        0.7616959810256958
      ],
      "type": "VEC3",
      "bufferView": 0,
      "byteOffset": 0
    },
    {
      "name": "meat_Plane.042-Mesh_normals",
      "componentType": 5126,
      "count": 1031,
      "min": [
        -0.9991999864578247,
        -0.9991000294685364,
        -0.9947999715805054
      ],
      "max": [
        0.9991999864578247,
        0.9995999932289124,
        0.998199999332428
      ],
      "type": "VEC3",
      "bufferView": 0,
      "byteOffset": 35832
    },
    {
      "name": "meat_Plane.042-Mesh_texcoords",
      "componentType": 5126,
      "count": 1031,
      "min": [
        0.44286099076271057,
        0.042663998901844025
      ],
      "max": [
        0.9589459896087646,
        0.5543100237846375
      ],
      "type": "VEC2",
      "bufferView": 1,
      "byteOffset": 0
    },
    {
      "name": "meat_Plane.042-Mesh_0_indices",
      "componentType": 5123,
      "count": 4452,
      "min": [
        0
      ],
      "max": [
        1030
      ],
      "type": "SCALAR",
      "bufferView": 2,
      "byteOffset": 0
    },
    {
      "name": "bread_Cube.001-Mesh_positions",
      "componentType": 5126,
      "count": 97,
      "min": [
        -1.4398659467697144,
        -0.07898599654436111,
        -1.0762640237808228
      ],
      "max": [
        1.4474749565124512,
        1.5314279794692993,
        0.6972140073776245
      ],
      "type": "VEC3",
      "bufferView": 0,
      "byteOffset": 12372
    },
    {
      "name": "bread_Cube.001-Mesh_normals",
      "componentType": 5126,
      "count": 97,
      "min": [
        -0.9718999862670898,
        -1,
        -0.9955999851226807
      ],
      "max": [
        0.8795999884605408,
        0.998199999332428,
        0.9641000032424927
      ],
      "type": "VEC3",
      "bufferView": 0,
      "byteOffset": 48204
    },
    {
      "name": "bread_Cube.001-Mesh_texcoords",
      "componentType": 5126,
      "count": 97,
      "min": [
        0.045823000371456146,
        0.01641000062227249
      ],
      "max": [
        0.937483012676239,
        0.9571040272712708
      ],
      "type": "VEC2",
      "bufferView": 1,
      "byteOffset": 8248
    },
    {
      "name": "bread_Cube.001-Mesh_0_indices",
      "componentType": 5123,
      "count": 330,
      "min": [
        0
      ],
      "max": [
        96
      ],
      "type": "SCALAR",
      "bufferView": 2,
      "byteOffset": 8904
    },
    {
      "name": "tomatoes_Circle.006-Mesh_positions",
      "componentType": 5126,
      "count": 183,
      "min": [
        -1.5621720552444458,
        0.3533099889755249,
        -0.48404601216316223
      ],
      "max": [
        1.5340479612350464,
        0.5529339909553528,
        0.676846981048584
      ],
      "type": "VEC3",
      "bufferView": 0,
      "byteOffset": 13536
    },
    {
      "name": "tomatoes_Circle.006-Mesh_normals",
      "componentType": 5126,
      "count": 183,
      "min": [
        -0.808899998664856,
        -0.9998999834060669,
        -0.8093000054359436
      ],
      "max": [
        0.8457000255584717,
        0.9998000264167786,
        0.8374000191688538
      ],
      "type": "VEC3",
      "bufferView": 0,
      "byteOffset": 49368
    },
    {
      "name": "tomatoes_Circle.006-Mesh_texcoords",
      "componentType": 5126,
      "count": 183,
      "min": [
        0.04210999980568886,
        0.028599999845027924
      ],
      "max": [
        0.4396339952945709,
        0.4694780111312866
      ],
      "type": "VEC2",
      "bufferView": 1,
      "byteOffset": 9024
    },
    {
      "name": "tomatoes_Circle.006-Mesh_0_indices",
      "componentType": 5123,
      "count": 528,
      "min": [
        0
      ],
      "max": [
        182
      ],
      "type": "SCALAR",
      "bufferView": 2,
      "byteOffset": 9564
    },
    {
      "name": "lettuce_Plane.010-Mesh_positions",
      "componentType": 5126,
      "count": 1574,
      "min": [
        -1.7519840002059937,
        0.191539004445076,
        -0.7222549915313721
      ],
      "max": [
        1.646577000617981,
        0.5386229753494263,
        0.8917980194091797
      ],
      "type": "VEC3",
      "bufferView": 0,
      "byteOffset": 15732
    },
    {
      "name": "lettuce_Plane.010-Mesh_normals",
      "componentType": 5126,
      "count": 1574,
      "min": [
        -0.8925999999046326,
        -0.9886999726295471,
        -0.9812999963760376
      ],
      "max": [
        0.968999981880188,
        1,
        0.963100016117096
      ],
      "type": "VEC3",
      "bufferView": 0,
      "byteOffset": 51564
    },
    {
      "name": "lettuce_Plane.010-Mesh_texcoords",
      "componentType": 5126,
      "count": 1574,
      "min": [
        0.3238840103149414,
        0.655239999294281
      ],
      "max": [
        0.900734007358551,
        0.9383479952812195
      ],
      "type": "VEC2",
      "bufferView": 1,
      "byteOffset": 10488
    },
    {
      "name": "lettuce_Plane.010-Mesh_0_indices",
      "componentType": 5123,
      "count": 3627,
      "min": [
        0
      ],
      "max": [
        1573
      ],
      "type": "SCALAR",
      "bufferView": 2,
      "byteOffset": 10620
    },
    {
      "name": "cheese_Plane.046-Mesh_positions",
      "componentType": 5126,
      "count": 101,
      "min": [
        -1.5775120258331299,
        0.6266639828681946,
        -0.21428899466991425
      ],
      "max": [
        1.436951994895935,
        0.8364440202713013,
        0.7149339914321899
      ],
      "type": "VEC3",
      "bufferView": 0,
      "byteOffset": 34620
    },
    {
      "name": "cheese_Plane.046-Mesh_normals",
      "componentType": 5126,
      "count": 101,
      "min": [
        -0.975600004196167,
        -0.9961000084877014,
        -0.98580002784729
      ],
      "max": [
        0.9801999926567078,
        0.9951000213623047,
        0.972599983215332
      ],
      "type": "VEC3",
      "bufferView": 0,
      "byteOffset": 70452
    },
    {
      "name": "cheese_Plane.046-Mesh_texcoords",
      "componentType": 5126,
      "count": 101,
      "min": [
        0.057385001331567764,
        0.5473840236663818
      ],
      "max": [
        0.2397029995918274,
        0.9802740216255188
      ],
      "type": "VEC2",
      "bufferView": 1,
      "byteOffset": 23080
    },
    {
      "name": "cheese_Plane.046-Mesh_0_indices",
      "componentType": 5123,
      "count": 324,
      "min": [
        0
      ],
      "max": [
        100
      ],
      "type": "SCALAR",
      "bufferView": 2,
      "byteOffset": 17876
    }
  ],
  "asset": {
    "generator": "obj2gltf",
    "version": "2.0"
  },
  "buffers": [
    {
      "name": "half_sub",
      "byteLength": 790660,
      "uri": "data:application/octet-stream;base64,"
    }
  ],
  "bufferViews": [
    {
      "name": "bufferView_0",
      "buffer": 0,
      "byteLength": 71664,
      "byteOffset": 0,
      "byteStride": 12,
      "target": 34962
    },
    {
      "name": "bufferView_1",
      "buffer": 0,
      "byteLength": 23888,
      "byteOffset": 71664,
      "byteStride": 8,
      "target": 34962
    },
    {
      "name": "bufferView_2",
      "buffer": 0,
      "byteLength": 18524,
      "byteOffset": 95552,
      "target": 34963
    },
    {
      "buffer": 0,
      "byteOffset": 114076,
      "byteLength": 491141
    },
    {
      "buffer": 0,
      "byteOffset": 605217,
      "byteLength": 185443
    }
  ],
  "images": [
    {
      "name": "sub_texture",
      "mimeType": "image/jpeg",
      "bufferView": 3
    },
    {
      "name": "half_sub_bread",
      "mimeType": "image/jpeg",
      "bufferView": 4
    }
  ],
  "materials": [
    {
      "name": "lunch_meat",
      "pbrMetallicRoughness": {
        "baseColorTexture": {
          "index": 0
        },
        "baseColorFactor": [
          1,
          1,
          1,
          1
        ],
        "metallicFactor": 0,
        "roughnessFactor": 0.905882353
      },
      "emissiveFactor": [
        0,
        0,
        0
      ],
      "alphaMode": "OPAQUE",
      "doubleSided": false
    },
    {
      "name": "half_sub_bread",
      "pbrMetallicRoughness": {
        "baseColorTexture": {
          "index": 1
        },
        "baseColorFactor": [
          1,
          1,
          1,
          1
        ],
        "metallicFactor": 0,
        "roughnessFactor": 0.905882353
      },
      "emissiveFactor": [
        0,
        0,
        0
      ],
      "alphaMode": "OPAQUE",
      "doubleSided": false
    },
    {
      "name": "tomato",
      "pbrMetallicRoughness": {
        "baseColorTexture": {
          "index": 0
        },
        "baseColorFactor": [
          1,
          1,
          1,
          1
        ],
        "metallicFactor": 0,
        "roughnessFactor": 0.905882353
      },
      "emissiveFactor": [
        0,
        0,
        0
      ],
      "alphaMode": "OPAQUE",
      "doubleSided": false
    },
    {
      "name": "lettuce",
      "pbrMetallicRoughness": {
        "baseColorTexture": {
          "index": 0
        },
        "baseColorFactor": [
          1,
          1,
          1,
          1
        ],
        "metallicFactor": 0,
        "roughnessFactor": 0.905882353
      },
      "emissiveFactor": [
        0,
        0,
        0
      ],
      "alphaMode": "OPAQUE",
      "doubleSided": false
    },
    {
      "name": "cheese",
      "pbrMetallicRoughness": {
        "baseColorTexture": {
          "index": 0
        },
        "baseColorFactor": [
          1,
          1,
          1,
          1
        ],
        "metallicFactor": 0,
        "roughnessFactor": 0.905882353
      },
      "emissiveFactor": [
        0,
        0,
        0
      ],
      "alphaMode": "OPAQUE",
      "doubleSided": false
    }
  ],
  "meshes": [
    {
      "name": "meat_Plane.042-Mesh",
      "primitives": [
        {
          "attributes": {
            "POSITION": 0,
            "NORMAL": 1,
            "TEXCOORD_0": 2
          },
          "indices": 3,
          "material": 0,
          "mode": 4
        }
      ]
    },
    {
      "name": "bread_Cube.001-Mesh",
      "primitives": [
        {
          "attributes": {
            "POSITION": 4,
            "NORMAL": 5,
            "TEXCOORD_0": 6
          },
          "indices": 7,
          "material": 1,
          "mode": 4
        }
      ]
    },
    {
      "name": "tomatoes_Circle.006-Mesh",
      "primitives": [
        {
          "attributes": {
            "POSITION": 8,
            "NORMAL": 9,
            "TEXCOORD_0": 10
          },
          "indices": 11,
          "material": 2,
          "mode": 4
        }
      ]
    },
    {
      "name": "lettuce_Plane.010-Mesh",
      "primitives": [
        {
          "attributes": {
            "POSITION": 12,
            "NORMAL": 13,
            "TEXCOORD_0": 14
          },
          "indices": 15,
          "material": 3,
          "mode": 4
        }
      ]
    },
    {
      "name": "cheese_Plane.046-Mesh",
      "primitives": [
        {
          "attributes": {
            "POSITION": 16,
            "NORMAL": 17,
            "TEXCOORD_0": 18
          },
          "indices": 19,
          "material": 4,
          "mode": 4
        }
      ]
    }
  ],
  "nodes": [
    {
      "name": "meat_Plane.042",
      "mesh": 0
    },
    {
      "name": "bread_Cube.001",
      "mesh": 1
    },
    {
      "name": "tomatoes_Circle.006",
      "mesh": 2
    },
    {
      "name": "lettuce_Plane.010",
      "mesh": 3
    },
    {
      "name": "cheese_Plane.046",
      "mesh": 4
    }
  ],
  "samplers": [
    {
      "magFilter": 9729,
      "minFilter": 9986,
      "wrapS": 10497,
      "wrapT": 10497
    }
  ],
  "scene": 0,
  "scenes": [
    {
      "nodes": [
        0,
        1,
        2,
        3,
        4
      ]
    }
  ],
  "textures": [
    {
      "name": "sub_texture",
      "sampler": 0,
      "source": 0
    },
    {
      "name": "half_sub_bread",
      "sampler": 0,
      "source": 1
    }
  ]
}
