{
  "accessors": [
    {
      "bufferView": 2,
      "componentType": 5126,
      "count": 2662,
      "max": [
        0.15608400106430054,
        1,
        0.15072299540042877
      ],
      "min": [
        -0.15592099726200104,
        0.82962501049041748,
        -0.1534460037946701
      ],
      "type": "VEC3"
    },
    {
      "bufferView": 2,
      "byteOffset": 31944,
      "componentType": 5126,
      "count": 2662,
      "max": [
        0.99993449449539185,
        0.99999773502349854,
        0.9999653697013855
      ],
      "min": [
        -0.99992698431015015,
        -0.84601414203643799,
        -0.99997663497924805
      ],
      "type": "VEC3"
    },
    {
      "bufferView": 3,
      "componentType": 5126,
      "count": 2662,
      "max": [
        0.99005448818206787,
        0.80836135149002075,
        0.9620976448059082,
        1
      ],
      "min": [
        -0.9538770318031311,
        -0.74325555562973022,
        -0.9997788667678833,
        1
      ],
      "type": "VEC4"
    },
    {
      "bufferView": 1,
      "componentType": 5126,
      "count": 2662,
      "max": [
        0.64568400382995605,
        0.96322900056838989
      ],
      "min": [
        0.051969900727272034,
        0.52156698703765869
      ],
      "type": "VEC2"
    },
    {
      "bufferView": 0,
      "componentType": 5125,
      "count": 14880,
      "max": [
        2661
      ],
      "min": [
        0
      ],
      "type": "SCALAR"
    },
    {
      "bufferView": 2,
      "byteOffset": 63888,
      "componentType": 5126,
      "count": 5219,
      "max": [
        0.28826498985290527,
        0.83342701196670532,
        0.27922999858856201
      ],
      "min": [
        -0.28826498985290527,
        -1,
        -0.27922999858856201
      ],
      "type": "VEC3"
    },
    {
      "bufferView": 2,
      "byteOffset": 126516,
      "componentType": 5126,
      "count": 5219,
      "max": [
        0.9999995231628418,
        0.74001079797744751,
        1
      ],
      "min": [
        -0.99999988079071045,
        -1,
        -0.9999997615814209
      ],
      "type": "VEC3"
    },
    {
      "bufferView": 3,
      "byteOffset": 42592,
      "componentType": 5126,
      "count": 5219,
      "max": [
        0.96421277523040771,
        0.99999523162841797,
        0.86654496192932129,
        1
      ],
      "min": [
        -0.97842192649841309,
        -0.60067212581634521,
        -0.98845893144607544,
        1
      ],
      "type": "VEC4"
    },
    {
      "bufferView": 1,
      "byteOffset": 21296,
      "componentType": 5126,
      "count": 5219,
      "max": [
        0.96562397480010986,
        0.98895299434661865
      ],
      "min": [
        0.044550199061632156,
        0.051607400178909302
      ],
      "type": "VEC2"
    },
    {
      "bufferView": 0,
      "byteOffset": 59520,
      "componentType": 5125,
      "count": 29760,
      "max": [
        5218
      ],
      "min": [
        0
      ],
      "type": "SCALAR"
    }
  ],
  "asset": {
    "extras": {
      "author": "KatH10 (https://sketchfab.com/KatH10)",
      "license": "CC-BY-4.0 (http://creativecommons.org/licenses/by/4.0/)",
      "source": "https://sketchfab.com/models/d78ccbe406f744b881aa2c339fbd27ef",
      "title": "Hot Sauce"
    },
    "generator": "Sketchfab-3.26.0",
    "version": "2.0"
  },
  "bufferViews": [
    {
      "buffer": 0,
      "byteLength": 178560,
      "byteOffset": 0,
      "name": "floatBufferViews",
      "target": 34963
    },
    {
      "buffer": 0,
      "byteLength": 63048,
      "byteOffset": 178560,
      "byteStride": 8,
      "name": "floatBufferViews",
      "target": 34962
    },
    {
      "buffer": 0,
      "byteLength": 189144,
      "byteOffset": 241608,
      "byteStride": 12,
      "name": "floatBufferViews",
      "target": 34962
    },
    {
      "buffer": 0,
      "byteLength": 126096,
      "byteOffset": 430752,
      "byteStride": 16,
      "name": "floatBufferViews",
      "target": 34962
    }
  ],
  "buffers": [
    {
      "byteLength": 556848,
      "uri": "scene.bin"
    }
  ],
  "images": [
    {
      "uri": "textures/blinn1_normal.png"
    },
    {
      "uri": "textures/blinn1_metallicRoughness.png"
    },
    {
      "uri": "textures/blinn1_baseColor.jpeg"
    },
    {
      "uri": "textures/blinn2_normal.png"
    },
    {
      "uri": "textures/blinn2_metallicRoughness.png"
    },
    {
      "uri": "textures/blinn2_baseColor.jpeg"
    }
  ],
  "materials": [
    {
      "doubleSided": true,
      "emissiveFactor": [
        0,
        0,
        0
      ],
      "name": "blinn2",
      "normalTexture": {
        "index": 3,
        "scale": 1,
        "texCoord": 0
      },
      "pbrMetallicRoughness": {
        "baseColorFactor": [
          1,
          1,
          1,
          1
        ],
        "baseColorTexture": {
          "index": 5,
          "texCoord": 0
        },
        "metallicFactor": 1,
        "metallicRoughnessTexture": {
          "index": 4,
          "texCoord": 0
        },
        "roughnessFactor": 1
      }
    },
    {
      "doubleSided": true,
      "emissiveFactor": [
        0,
        0,
        0
      ],
      "name": "blinn1",
      "normalTexture": {
        "index": 0,
        "scale": 1,
        "texCoord": 0
      },
      "pbrMetallicRoughness": {
        "baseColorFactor": [
          1,
          1,
          1,
          1
        ],
        "baseColorTexture": {
          "index": 2,
          "texCoord": 0
        },
        "metallicFactor": 1,
        "metallicRoughnessTexture": {
          "index": 1,
          "texCoord": 0
        },
        "roughnessFactor": 1
      }
    }
  ],
  "meshes": [
    {
      "name": "defaultMaterial",
      "primitives": [
        {
          "attributes": {
            "NORMAL": 1,
            "POSITION": 0,
            "TANGENT": 2,
            "TEXCOORD_0": 3
          },
          "indices": 4,
          "material": 1,
          "mode": 4
        }
      ]
    },
    {
      "name": "defaultMaterial",
      "primitives": [
        {
          "attributes": {
            "NORMAL": 6,
            "POSITION": 5,
            "TANGENT": 7,
            "TEXCOORD_0": 8
          },
          "indices": 9,
          "material": 0,
          "mode": 4
        }
      ]
    }
  ],
  "nodes": [
    {
      "children": [
        1
      ],
      "name": "RootNode (gltf orientation matrix)",
      "rotation": [
        -0.70710678118654746,
        -0,
        -0,
        0.70710678118654757
      ]
    },
    {
      "children": [
        2
      ],
      "name": "RootNode (model correction matrix)"
    },
    {
      "children": [
        3,
        5
      ],
      "matrix": [
        1,
        0,
        0,
        0,
        0,
        -4.3711390063094768e-08,
        0.999999999999999,
        0,
        0,
        -0.999999999999999,
        -4.3711390063094768e-08,
        0,
        0,
        0,
        0,
        1
      ],
      "name": "Collada visual scene group"
    },
    {
      "children": [
        4
      ],
      "name": "pCylinder1"
    },
    {
      "mesh": 0,
      "name": "defaultMaterial"
    },
    {
      "children": [
        6
      ],
      "name": "pCylinder1"
    },
    {
      "mesh": 1,
      "name": "defaultMaterial"
    }
  ],
  "samplers": [
    {
      "magFilter": 9729,
      "minFilter": 9987,
      "wrapS": 10497,
      "wrapT": 10497
    }
  ],
  "scene": 0,
  "scenes": [
    {
      "name": "OSG_Scene",
      "nodes": [
        0
      ]
    }
  ],
  "textures": [
    {
      "sampler": 0,
      "source": 0
    },
    {
      "sampler": 0,
      "source": 1
    },
    {
      "sampler": 0,
      "source": 2
    },
    {
      "sampler": 0,
      "source": 3
    },
    {
      "sampler": 0,
      "source": 4
    },
    {
      "sampler": 0,
      "source": 5
    }
  ]
}

