{
  "accessors": [
    {
      "bufferView": 1,
      "componentType": 5126,
      "count": 5452,
      "max": [
        0.93049001693725586,
        0.93049001693725586,
        0.93049001693725586
      ],
      "min": [
        -0.93049001693725586,
        -0.93049001693725586,
        -0.93049001693725586
      ],
      "type": "VEC3"
    },
    {
      "bufferView": 1,
      "byteOffset": 65424,
      "componentType": 5126,
      "count": 5452,
      "max": [
        0.99997729063034058,
        0.99987643957138062,
        0.99997788667678833
      ],
      "min": [
        -0.99997729063034058,
        -0.9998818039894104,
        -0.99997788667678833
      ],
      "type": "VEC3"
    },
    {
      "bufferView": 0,
      "componentType": 5125,
      "count": 32040,
      "max": [
        5451
      ],
      "min": [
        0
      ],
      "type": "SCALAR"
    },
    {
      "bufferView": 1,
      "byteOffset": 130848,
      "componentType": 5126,
      "count": 2744,
      "max": [
        0.90468001365661621,
        0.90468001365661621,
        0.90468001365661621
      ],
      "min": [
        -0.90468001365661621,
        -0.90468001365661621,
        -0.90468001365661621
      ],
      "type": "VEC3"
    },
    {
      "bufferView": 1,
      "byteOffset": 163776,
      "componentType": 5126,
      "count": 2744,
      "max": [
        0.99997729063034058,
        0.99987643957138062,
        0.99997788667678833
      ],
      "min": [
        -0.99997729063034058,
        -0.9998818039894104,
        -0.99997788667678833
      ],
      "type": "VEC3"
    },
    {
      "bufferView": 0,
      "byteOffset": 128160,
      "componentType": 5125,
      "count": 16020,
      "max": [
        2743
      ],
      "min": [
        0
      ],
      "type": "SCALAR"
    },
    {
      "bufferView": 1,
      "byteOffset": 196704,
      "componentType": 5126,
      "count": 65532,
      "max": [
        0.86875998973846436,
        0.86875998973846436,
        0.86875998973846436
      ],
      "min": [
        -0.84964001178741455,
        -0.86875998973846436,
        -0.84981000423431396
      ],
      "type": "VEC3"
    },
    {
      "bufferView": 1,
      "byteOffset": 983088,
      "componentType": 5126,
      "count": 65532,
      "max": [
        1,
        1,
        1
      ],
      "min": [
        -1,
        -1,
        -1
      ],
      "type": "VEC3"
    },
    {
      "bufferView": 0,
      "byteOffset": 192240,
      "componentType": 5125,
      "count": 393147,
      "max": [
        65531
      ],
      "min": [
        0
      ],
      "type": "SCALAR"
    },
    {
      "bufferView": 1,
      "byteOffset": 1769472,
      "componentType": 5126,
      "count": 65532,
      "max": [
        0.84964001178741455,
        0.84974002838134766,
        0.84981000423431396
      ],
      "min": [
        -0.86865997314453125,
        -0.84974002838134766,
        -0.86875998973846436
      ],
      "type": "VEC3"
    },
    {
      "bufferView": 1,
      "byteOffset": 2555856,
      "componentType": 5126,
      "count": 65532,
      "max": [
        0.99998992681503296,
        1,
        1
      ],
      "min": [
        -0.99998992681503296,
        -1,
        -1
      ],
      "type": "VEC3"
    },
    {
      "bufferView": 0,
      "byteOffset": 1764828,
      "componentType": 5125,
      "count": 393012,
      "max": [
        65531
      ],
      "min": [
        0
      ],
      "type": "SCALAR"
    },
    {
      "bufferView": 1,
      "byteOffset": 3342240,
      "componentType": 5126,
      "count": 5059,
      "max": [
        0.77837997674942017,
        0.73983001708984375,
        0.85392999649047852
      ],
      "min": [
        -0.85162997245788574,
        -0.35530000925064087,
        -0.85392999649047852
      ],
      "type": "VEC3"
    },
    {
      "bufferView": 1,
      "byteOffset": 3402948,
      "componentType": 5126,
      "count": 5059,
      "max": [
        0.99993902444839478,
        1,
        1
      ],
      "min": [
        -0.99993896484375,
        -1,
        -1
      ],
      "type": "VEC3"
    },
    {
      "bufferView": 0,
      "byteOffset": 3336876,
      "componentType": 5125,
      "count": 30225,
      "max": [
        5058
      ],
      "min": [
        0
      ],
      "type": "SCALAR"
    }
  ],
  "asset": {
    "extras": {
      "author": "Dakon_official (https://sketchfab.com/Dakon_official)",
      "license": "CC-BY-4.0 (http://creativecommons.org/licenses/by/4.0/)",
      "source": "https://sketchfab.com/models/40c3fee5315c4ef2acbb368484a1fc7b",
      "title": "Ball"
    },
    "generator": "Sketchfab-3.18.6",
    "version": "2.0"
  },
  "bufferViews": [
    {
      "buffer": 0,
      "byteLength": 3457776,
      "byteOffset": 0,
      "name": "floatBufferViews",
      "target": 34963
    },
    {
      "buffer": 0,
      "byteLength": 3463656,
      "byteOffset": 3457776,
      "byteStride": 12,
      "name": "floatBufferViews",
      "target": 34962
    }
  ],
  "buffers": [
    {
      "byteLength": 6921432,
      "uri": "scene.bin"
    }
  ],
  "materials": [
    {
      "doubleSided": true,
      "emissiveFactor": [
        0,
        0,
        0
      ],
      "name": "Material.001",
      "pbrMetallicRoughness": {
        "baseColorFactor": [
          1,
          1,
          1,
          1
        ],
        "metallicFactor": 1,
        "roughnessFactor": 0
      }
    },
    {
      "doubleSided": true,
      "name": "white",
      "pbrMetallicRoughness": {
        "baseColorFactor": [
          1,
          1,
          1,
          1
        ],
        "metallicFactor": 0,
        "roughnessFactor": 0
      }
    },
    {
      "doubleSided": true,
      "emissiveFactor": [
        0,
        0,
        0
      ],
      "name": "black",
      "pbrMetallicRoughness": {
        "baseColorFactor": [
          0.032829706600000001,
          0.0320161354,
          0.0320161354,
          1
        ],
        "metallicFactor": 1,
        "roughnessFactor": 0.0299999993
      }
    }
  ],
  "meshes": [
    {
      "name": "Solid_0",
      "primitives": [
        {
          "attributes": {
            "NORMAL": 1,
            "POSITION": 0
          },
          "indices": 2,
          "material": 1,
          "mode": 4
        }
      ]
    },
    {
      "name": "Solid_1",
      "primitives": [
        {
          "attributes": {
            "NORMAL": 4,
            "POSITION": 3
          },
          "indices": 5,
          "material": 2,
          "mode": 4
        }
      ]
    },
    {
      "name": "Solid.001_0",
      "primitives": [
        {
          "attributes": {
            "NORMAL": 7,
            "POSITION": 6
          },
          "indices": 8,
          "material": 0,
          "mode": 4
        }
      ]
    },
    {
      "name": "Solid.001_0",
      "primitives": [
        {
          "attributes": {
            "NORMAL": 10,
            "POSITION": 9
          },
          "indices": 11,
          "material": 0,
          "mode": 4
        }
      ]
    },
    {
      "name": "Solid.001_0",
      "primitives": [
        {
          "attributes": {
            "NORMAL": 13,
            "POSITION": 12
          },
          "indices": 14,
          "material": 0,
          "mode": 4
        }
      ]
    }
  ],
  "nodes": [
    {
      "children": [
        1
      ],
      "name": "RootNode (gltf orientation matrix)",
      "rotation": [
        -0.70710678118654746,
        -0,
        -0,
        0.70710678118654757
      ]
    },
    {
      "children": [
        2
      ],
      "name": "RootNode (model correction matrix)"
    },
    {
      "children": [
        3,
        5,
        8
      ],
      "name": "Root"
    },
    {
      "children": [
        4
      ],
      "matrix": [
        -0.29086000000000006,
        0.95517000000000007,
        -0.05519000000000001,
        0,
        -0.77110000000000001,
        -0.19988000000000003,
        0.60452000000000006,
        0,
        0.56639000000000006,
        0.21839000000000003,
        0.7946700000000001,
        0,
        4.0762500000000008,
        1.00545,
        5.9038600000000008,
        1
      ],
      "name": "Lamp"
    },
    {
      "name": "Lamp"
    },
    {
      "children": [
        6,
        7
      ],
      "name": "Solid"
    },
    {
      "mesh": 0,
      "name": "Solid_0"
    },
    {
      "mesh": 1,
      "name": "Solid_1"
    },
    {
      "children": [
        9,
        10,
        11
      ],
      "matrix": [
        1.06358,
        0,
        0,
        0,
        0,
        1.06358,
        0,
        0,
        0,
        0,
        1.06358,
        0,
        -6.0000000000000022e-05,
        0,
        0,
        1
      ],
      "name": "Solid.001"
    },
    {
      "mesh": 2,
      "name": "Solid.001_0"
    },
    {
      "mesh": 3,
      "name": "Solid.001_0"
    },
    {
      "mesh": 4,
      "name": "Solid.001_0"
    }
  ],
  "scene": 0,
  "scenes": [
    {
      "name": "OSG_Scene",
      "nodes": [
        0
      ]
    }
  ]
}

