{
  "accessors": [
    {
      "name": "Text_Font1-Mesh_positions",
      "componentType": 5126,
      "count": 798,
      "min": [
        -1.71772301197052,
        -0.22190099954605103,
        -2.0669620037078857
      ],
      "max": [
        1.8574140071868896,
        0.7534250020980835,
        1.9694650173187256
      ],
      "type": "VEC3",
      "bufferView": 0,
      "byteOffset": 0
    },
    {
      "name": "Text_Font1-Mesh_normals",
      "componentType": 5126,
      "count": 798,
      "min": [
        -0.7469000220298767,
        -0.9972000122070312,
        -0.7476999759674072
      ],
      "max": [
        0.7469000220298767,
        0.9993000030517578,
        0.7476000189781189
      ],
      "type": "VEC3",
      "bufferView": 0,
      "byteOffset": 9576
    },
    {
      "name": "Text_Font1-Mesh_0_indices",
      "componentType": 5123,
      "count": 2184,
      "min": [
        0
      ],
      "max": [
        797
      ],
      "type": "SCALAR",
      "bufferView": 1,
      "byteOffset": 0
    }
  ],
  "asset": {
    "generator": "obj2gltf",
    "version": "2.0"
  },
  "buffers": [
    {
      "name": "text",
      "byteLength": 23520,
      "uri": "data:application/octet-stream;base64,"
    }
  ],
  "bufferViews": [
    {
      "name": "bufferView_0",
      "buffer": 0,
      "byteLength": 19152,
      "byteOffset": 0,
      "byteStride": 12,
      "target": 34962
    },
    {
      "name": "bufferView_1",
      "buffer": 0,
      "byteLength": 4368,
      "byteOffset": 19152,
      "target": 34963
    }
  ],
  "materials": [
    {
      "name": "None",
      "pbrMetallicRoughness": {
        "baseColorFactor": [
          0.8,
          0.8,
          0.8,
          1
        ],
        "metallicFactor": 0,
        "roughnessFactor": 1
      },
      "emissiveFactor": [
        0,
        0,
        0
      ],
      "alphaMode": "OPAQUE",
      "doubleSided": false
    }
  ],
  "meshes": [
    {
      "name": "Text_Font1-Mesh",
      "primitives": [
        {
          "attributes": {
            "POSITION": 0,
            "NORMAL": 1
          },
          "indices": 2,
          "material": 0,
          "mode": 4
        }
      ]
    }
  ],
  "nodes": [
    {
      "name": "Text_Font1",
      "mesh": 0
    }
  ],
  "scene": 0,
  "scenes": [
    {
      "nodes": [
        0
      ]
    }
  ]
}
