<svg xmlns="http://www.w3.org/2000/svg" xmlns:xlink="http://www.w3.org/1999/xlink" version="1.1" x="0px" y="0px" viewBox="0 0 100 100" enable-background="new 0 0 100 100" xml:space="preserve"><g><g><path fill-rule="evenodd" clip-rule="evenodd" fill="#FFFFFF" d="M6.407,19.206h87.221c0.777,0,1.407,0.63,1.407,1.407v2.814    c0,0.777-0.63,1.407-1.407,1.407H6.407C5.63,24.833,5,24.203,5,23.426v-2.814C5,19.836,5.63,19.206,6.407,19.206z"/></g><g><path fill-rule="evenodd" clip-rule="evenodd" fill="#FFFFFF" d="M6.407,47.341h87.221c0.777,0,1.407,0.63,1.407,1.407v2.814    c0,0.777-0.63,1.407-1.407,1.407H6.407C5.63,52.969,5,52.339,5,51.562v-2.814C5,47.971,5.63,47.341,6.407,47.341z"/></g><g><path fill-rule="evenodd" clip-rule="evenodd" fill="#FFFFFF" d="M6.407,75.477h87.221c0.777,0,1.407,0.63,1.407,1.407v2.814    c0,0.777-0.63,1.407-1.407,1.407H6.407C5.63,81.105,5,80.475,5,79.698v-2.814C5,76.107,5.63,75.477,6.407,75.477z"/></g></g></svg>
