# Blender v2.79 (sub 0) OBJ File: ''
# www.blender.org
mtllib doritos_cool_ranch.mtl
o Doritos_01_Untitled
v -0.597687 0.000892 0.007635
v -0.601866 0.246688 0.005315
v -0.733986 0.141529 0.042438
v -0.684259 0.120672 -0.041232
v -0.793433 0.254816 0.003055
v -0.796917 0.007588 -0.000469
vt 0.148032 0.696059
vt 0.467925 0.388808
vt 0.464469 0.904377
vt 0.048296 0.915945
vt 0.531522 0.058446
vt 0.678749 0.341112
vt 0.538565 0.601983
vt 0.969712 0.055852
vt 0.025652 0.389172
vt 0.961185 0.616591
vn -0.1357 0.0325 0.9902
vn 0.6616 -0.7464 0.0718
vn 0.7057 0.7084 0.0112
vn -0.6420 0.7664 -0.0205
vn 0.0866 -0.0106 -0.9962
vn -0.6896 -0.7242 -0.0034
usemtl Cool_Ranch
s 1
f 3/1/1 1/2/2 2/3/3
f 2/3/3 5/4/4 3/1/1
f 1/5/2 4/6/5 2/7/3
f 4/6/5 1/5/2 6/8/6
f 6/9/6 3/1/1 5/4/4
f 4/6/5 6/8/6 5/10/4
f 1/2/2 3/1/1 6/9/6
f 5/10/4 2/7/3 4/6/5
