{
  "accessors": [
    {
      "name": "Doritos_01_Untitled-Mesh_positions",
      "componentType": 5126,
      "count": 10,
      "min": [
        -0.7969170212745667,
        0.0008919999818317592,
        -0.04123200103640556
      ],
      "max": [
        -0.5976870059967041,
        0.2548159956932068,
        0.042438000440597534
      ],
      "type": "VEC3",
      "bufferView": 0,
      "byteOffset": 0
    },
    {
      "name": "Doritos_01_Untitled-Mesh_normals",
      "componentType": 5126,
      "count": 10,
      "min": [
        -0.6895999908447266,
        -0.746399998664856,
        -0.9962000250816345
      ],
      "max": [
        0.7056999802589417,
        0.7663999795913696,
        0.9901999831199646
      ],
      "type": "VEC3",
      "bufferView": 0,
      "byteOffset": 120
    },
    {
      "name": "Doritos_01_Untitled-Mesh_texcoords",
      "componentType": 5126,
      "count": 10,
      "min": [
        0.025652000680565834,
        0.08405499905347824
      ],
      "max": [
        0.9697120189666748,
        0.9441480040550232
      ],
      "type": "VEC2",
      "bufferView": 1,
      "byteOffset": 0
    },
    {
      "name": "Doritos_01_Untitled-Mesh_0_indices",
      "componentType": 5123,
      "count": 24,
      "min": [
        0
      ],
      "max": [
        9
      ],
      "type": "SCALAR",
      "bufferView": 2,
      "byteOffset": 0
    }
  ],
  "asset": {
    "generator": "obj2gltf",
    "version": "2.0"
  },
  "buffers": [
    {
      "name": "doritos_cool_ranch",
      "byteLength": 973900,
      "uri": "data:application/octet-stream;base64,"
    }
  ],
  "bufferViews": [
    {
      "name": "bufferView_0",
      "buffer": 0,
      "byteLength": 240,
      "byteOffset": 0,
      "byteStride": 12,
      "target": 34962
    },
    {
      "name": "bufferView_1",
      "buffer": 0,
      "byteLength": 80,
      "byteOffset": 240,
      "byteStride": 8,
      "target": 34962
    },
    {
      "name": "bufferView_2",
      "buffer": 0,
      "byteLength": 48,
      "byteOffset": 320,
      "target": 34963
    },
    {
      "buffer": 0,
      "byteOffset": 368,
      "byteLength": 973529
    }
  ],
  "images": [
    {
      "name": "cool_ranch",
      "mimeType": "image/png",
      "bufferView": 3
    }
  ],
  "materials": [
    {
      "name": "Cool_Ranch",
      "pbrMetallicRoughness": {
        "baseColorTexture": {
          "index": 0
        },
        "baseColorFactor": [
          1,
          1,
          1,
          1
        ],
        "metallicFactor": 0,
        "roughnessFactor": 0.905882353
      },
      "emissiveFactor": [
        0,
        0,
        0
      ],
      "alphaMode": "OPAQUE",
      "doubleSided": false
    }
  ],
  "meshes": [
    {
      "name": "Doritos_01_Untitled-Mesh",
      "primitives": [
        {
          "attributes": {
            "POSITION": 0,
            "NORMAL": 1,
            "TEXCOORD_0": 2
          },
          "indices": 3,
          "material": 0,
          "mode": 4
        }
      ]
    }
  ],
  "nodes": [
    {
      "name": "Doritos_01_Untitled",
      "mesh": 0
    }
  ],
  "samplers": [
    {
      "magFilter": 9729,
      "minFilter": 9986,
      "wrapS": 10497,
      "wrapT": 10497
    }
  ],
  "scene": 0,
  "scenes": [
    {
      "nodes": [
        0
      ]
    }
  ],
  "textures": [
    {
      "name": "cool_ranch",
      "sampler": 0,
      "source": 0
    }
  ]
}
