{
  "accessors": [
    {
      "bufferView": 2,
      "componentType": 5126,
      "count": 74,
      "max": [
        27.143672943115234,
        26.731300354003906,
        2.0931546688079834
      ],
      "min": [
        -27.143672943115234,
        -26.731302261352539,
        0
      ],
      "type": "VEC3"
    },
    {
      "bufferView": 2,
      "byteOffset": 888,
      "componentType": 5126,
      "count": 74,
      "max": [
        1,
        0.98480784893035889,
        1
      ],
      "min": [
        -1,
        -0.98480790853500366,
        -1
      ],
      "type": "VEC3"
    },
    {
      "bufferView": 3,
      "componentType": 5126,
      "count": 74,
      "max": [
        1,
        1,
        0,
        1
      ],
      "min": [
        -0.98480784893035889,
        -1,
        0,
        -1
      ],
      "type": "VEC4"
    },
    {
      "bufferView": 1,
      "componentType": 5126,
      "count": 74,
      "max": [
        0.98476225137710571,
        0.96932429075241089
      ],
      "min": [
        0.024905800819396973,
        0.044646468013525009
      ],
      "type": "VEC2"
    },
    {
      "bufferView": 0,
      "componentType": 5125,
      "count": 204,
      "max": [
        73
      ],
      "min": [
        0
      ],
      "type": "SCALAR"
    }
  ],
  "asset": {
    "extras": {
      "author": "Dantedude90 (https://sketchfab.com/Dantedude90)",
      "license": "CC-BY-4.0 (http://creativecommons.org/licenses/by/4.0/)",
      "source": "https://sketchfab.com/models/ea889f35c67d4002a8cd71631372a0c3",
      "title": "Old Coin"
    },
    "generator": "Sketchfab-3.19.1",
    "version": "2.0"
  },
  "bufferViews": [
    {
      "buffer": 0,
      "byteLength": 816,
      "byteOffset": 0,
      "name": "floatBufferViews",
      "target": 34963
    },
    {
      "buffer": 0,
      "byteLength": 592,
      "byteOffset": 816,
      "byteStride": 8,
      "name": "floatBufferViews",
      "target": 34962
    },
    {
      "buffer": 0,
      "byteLength": 1776,
      "byteOffset": 1408,
      "byteStride": 12,
      "name": "floatBufferViews",
      "target": 34962
    },
    {
      "buffer": 0,
      "byteLength": 1184,
      "byteOffset": 3184,
      "byteStride": 16,
      "name": "floatBufferViews",
      "target": 34962
    }
  ],
  "buffers": [
    {
      "byteLength": 4368,
      "uri": "scene.bin"
    }
  ],
  "images": [
    {
      "uri": "textures/Material_25_normal.png"
    }
  ],
  "materials": [
    {
      "doubleSided": true,
      "emissiveFactor": [
        0,
        0,
        0
      ],
      "name": "Material_25",
      "normalTexture": {
        "index": 0,
        "scale": 1,
        "texCoord": 0
      },
      "pbrMetallicRoughness": {
        "baseColorFactor": [
          0.2265340039,
          0.1101932127,
          0.0065649923000000001,
          1
        ],
        "metallicFactor": 1,
        "roughnessFactor": 0.10999999999999999
      }
    }
  ],
  "meshes": [
    {
      "name": "Cylinder001_Material #25_0",
      "primitives": [
        {
          "attributes": {
            "NORMAL": 1,
            "POSITION": 0,
            "TANGENT": 2,
            "TEXCOORD_0": 3
          },
          "indices": 4,
          "material": 0,
          "mode": 4
        }
      ]
    }
  ],
  "nodes": [
    {
      "children": [
        1
      ],
      "name": "RootNode (gltf orientation matrix)",
      "rotation": [
        -0.70710678118654746,
        -0,
        -0,
        0.70710678118654757
      ]
    },
    {
      "children": [
        2
      ],
      "name": "RootNode (model correction matrix)"
    },
    {
      "children": [
        3
      ],
      "matrix": [
        1,
        0,
        0,
        0,
        0,
        0,
        1,
        0,
        0,
        -1,
        0,
        0,
        0,
        0,
        0,
        1
      ],
      "name": "e0c1eeb9fff1420e878d8a2fb871e684.fbx"
    },
    {
      "children": [
        4
      ],
      "name": "RootNode"
    },
    {
      "children": [
        5
      ],
      "matrix": [
        1,
        0,
        0,
        0,
        0,
        2.2204460492503131e-16,
        -1,
        0,
        0,
        1,
        2.2204460492503131e-16,
        0,
        0,
        0,
        0,
        1
      ],
      "name": "Cylinder001"
    },
    {
      "mesh": 0,
      "name": "Cylinder001_Material #25_0"
    }
  ],
  "samplers": [
    {
      "magFilter": 9729,
      "minFilter": 9987,
      "wrapS": 10497,
      "wrapT": 10497
    }
  ],
  "scene": 0,
  "scenes": [
    {
      "name": "OSG_Scene",
      "nodes": [
        0
      ]
    }
  ],
  "textures": [
    {
      "sampler": 0,
      "source": 0
    }
  ]
}

